#!OML:ASF H:\Terrain\Patient Classification 1\Walking\steve\steve.ASF
:FULLY-SPECIFIED
:DEGREES
151
root 8.85653 15.4723 -7.55448 13.0467 -8.43853 -3.95204
lowerback -0.197001 5.75209 -1.18389
upperback -3.59506 7.59905 -2.33629
thorax -3.42862 3.79332 -1.9504
lowerneck -10.733 -2.08676 -3.57933
upperneck 10.2663 -2.90791 5.359
head 4.97356 -1.21606 2.03379
rclavicle 1.19271e-014 1.35174e-014
rhumerus -41.0279 1.17926 -85.3684
rradius 34.7888
rwrist 0.399232
rhand -21.8603 -37.7903
rfingers 7.12502
rthumb 4.54363 -67.7216
lclavicle 1.19271e-014 1.35174e-014
lhumerus -45.7324 13.451 62.1026
lradius 20.7242
lwrist -4.29251
lhand -20.3747 -16.1824
lfingers 7.12502
lthumb 5.97811 13.7133
rfemur -3.51029 5.60993 23.012
rtibia 55.2721
rfoot 5.28984 3.31587
rtoes -6.80713
lfemur -45.5212 4.66117 -20.0672
ltibia 53.7005
lfoot -20.174 1.02996
ltoes -2.6132
152
root 8.86455 15.5231 -7.39131 12.9122 -8.29724 -3.78757
lowerback -0.306191 5.66772 -1.33232
upperback -3.51676 7.48761 -2.32679
thorax -3.30869 3.74258 -1.83999
lowerneck -10.5579 -2.08696 -3.57521
upperneck 10.1857 -2.93136 5.53086
head 4.92309 -1.21962 2.08603
rclavicle 4.96962e-014 -3.57812e-014
rhumerus -41.6868 0.402829 -85.2201
rradius 34.3631
rwrist 1.06974
rhand -19.5821 -37.0564
rfingers 7.12502
rthumb 6.74322 -66.9291
lclavicle 4.96962e-014 -3.57812e-014
lhumerus -44.4817 12.8607 63.4402
lradius 21.1342
lwrist -4.12286
lhand -21.2577 -18.8531
lfingers 7.12502
lthumb 5.12549 11.0649
rfemur -5.15454 5.36555 23.0458
rtibia 56.7666
rfoot 3.10703 3.85717
rtoes -7.8588
lfemur -44.2578 4.43272 -20.2793
ltibia 52.876
lfoot -20.4678 0.941545
ltoes -2.37411
153
root 8.87583 15.5745 -7.22768 12.7567 -8.21757 -3.53505
lowerback -0.245274 5.54978 -1.55025
upperback -3.61765 7.32231 -2.31861
thorax -3.47916 3.66543 -1.7247
lowerneck -9.98274 -2.00758 -3.42829
upperneck 10.0403 -2.84164 5.42596
head 4.77402 -1.18675 2.03954
rclavicle 1.01778e-013 -1.90833e-014
rhumerus -42.5281 -0.339401 -85.04
rradius 33.8502
rwrist 2.07206
rhand -22.4787 -34.4352
rfingers 7.12502
rthumb 3.94656 -64.3784
lclavicle 1.01778e-013 -1.90833e-014
lhumerus -43.5911 11.8493 64.8934
lradius 21.9769
lwrist -2.85817
lhand -21.9316 -20.078
lfingers 7.12502
lthumb 4.47485 9.8547
rfemur -6.8192 5.1765 22.9503
rtibia 58.145
rfoot 0.906913 3.90829
rtoes -9.42668
lfemur -42.947 4.20186 -20.6311
ltibia 52.0654
lfoot -20.7019 1.38505
ltoes -4.27691
154
root 8.88962 15.6208 -7.07338 12.4981 -8.00457 -3.56307
lowerback 0.00156314 5.36451 -1.39308
upperback -3.63148 7.07469 -2.19579
thorax -3.6318 3.53795 -1.70538
lowerneck -9.68811 -1.9009 -3.24328
upperneck 10.0247 -2.69608 5.1355
head 4.70665 -1.13078 1.93136
rclavicle 1.98785e-016 -7.95139e-016
rhumerus -43.6962 -0.187711 -85.2251
rradius 34.1678
rwrist 1.88144
rhand -21.9146 -34.7899
rfingers 7.12502
rthumb 4.49118 -64.7223
lclavicle 1.98785e-016 -7.95139e-016
lhumerus -42.5249 11.2554 66.1228
lradius 22.7623
lwrist -1.4169
lhand -21.9043 -20.039
lfingers 7.12502
lthumb 4.50119 9.89322
rfemur -8.20713 4.98259 23.1997
rtibia 59.3518
rfoot -1.05624 3.47674
rtoes -8.79147
lfemur -41.5626 3.89437 -20.6176
ltibia 51.2833
lfoot -20.7718 1.60331
ltoes -4.93569
155
root 8.89909 15.6573 -6.92152 12.222 -7.96326 -3.80527
lowerback 0.19047 5.23005 -1.20111
upperback -3.53363 6.90421 -1.94056
thorax -3.64715 3.45052 -1.5575
lowerneck -9.76676 -1.8162 -3.30731
upperneck 10.1723 -2.56589 5.04848
head 4.7591 -1.07243 1.9238
rclavicle 7.32522e-014 3.18055e-015
rhumerus -44.9591 0.304659 -85.5168
rradius 35.0393
rwrist 1.34843
rhand -20.005 -36.1973
rfingers 7.12502
rthumb 6.33503 -66.0825
lclavicle 7.32522e-014 3.18055e-015
lhumerus -41.3534 10.913 67.2969
lradius 23.4151
lwrist -0.391656
lhand -21.9666 -20.0972
lfingers 7.12502
lthumb 4.44106 9.83623
rfemur -9.58324 4.92744 23.7105
rtibia 60.4027
rfoot -2.98882 2.97409
rtoes -9.73694
lfemur -40.1372 3.79348 -20.3473
ltibia 50.466
lfoot -21.0498 1.30468
ltoes -3.82111
156
root 8.90922 15.7005 -6.76018 11.8559 -8.10402 -3.31908
lowerback 0.23993 5.13316 -1.73894
upperback -3.38428 6.76276 -1.9373
thorax -3.58532 3.39507 -1.2538
lowerneck -9.95681 -1.76741 -3.39116
upperneck 10.4396 -2.50654 5.15624
head 4.87313 -1.03495 1.97479
rclavicle -1.66979e-014 -1.19271e-014
rhumerus -45.6152 -0.0213832 -85.4839
rradius 35.1189
rwrist 2.05727
rhand -18.4403 -36.8119
rfingers 7.12502
rthumb 7.84538 -66.6463
lclavicle -1.66979e-014 -1.19271e-014
lhumerus -40.1032 10.4373 68.4224
lradius 24.0344
lwrist 0.448831
lhand -22.4588 -19.8946
lfingers 7.12502
lthumb 3.96569 10.0483
rfemur -11.025 4.70187 23.3591
rtibia 61.2839
rfoot -5.21518 2.67762
rtoes -14.6684
lfemur -38.5393 3.63566 -20.9498
ltibia 49.5406
lfoot -21.554 1.60247
ltoes -4.88443
157
root 8.92 15.7527 -6.59705 11.5607 -8.19366 -2.47775
lowerback 0.122067 5.06739 -2.4942
upperback -3.24918 6.65868 -2.11878
thorax -3.44566 3.36078 -1.00535
lowerneck -10.1724 -1.80734 -3.56139
upperneck 10.775 -2.57572 5.419
head 5.02161 -1.05275 2.07925
rclavicle 1.24837e-013 3.97569e-015
rhumerus -46.1215 -0.6364 -85.3359
rradius 34.7958
rwrist 2.54013
rhand -17.5539 -36.7762
rfingers 7.12502
rthumb 8.70085 -66.5769
lclavicle 1.24837e-013 3.97569e-015
lhumerus -38.6966 9.51607 69.6848
lradius 24.6004
lwrist 1.61918
lhand -23.271 -19.1856
lfingers 7.12502
lthumb 3.18138 10.7705
rfemur -12.5005 4.36602 22.5796
rtibia 61.9534
rfoot -7.20833 2.29533
rtoes -16.8976
lfemur -37.0134 3.31954 -21.9503
ltibia 48.5361
lfoot -21.9584 2.15395
ltoes -6.57286
158
root 8.92769 15.797 -6.44045 11.3894 -8.17622 -2.24226
lowerback 0.127412 4.96215 -2.73564
upperback -3.2773 6.51343 -2.05826
thorax -3.51176 3.29609 -0.810456
lowerneck -10.0667 -1.73418 -3.60447
upperneck 11.0346 -2.46914 5.30957
head 5.07806 -1.00896 2.06138
rclavicle 1.98785e-015 -1.11319e-014
rhumerus -46.9392 -0.892696 -85.2297
rradius 34.514
rwrist 2.43386
rhand -17.3273 -36.3566
rfingers 7.12502
rthumb 8.91954 -66.148
lclavicle 1.98785e-015 -1.11319e-014
lhumerus -37.5154 8.5591 70.9419
lradius 25.0511
lwrist 3.07021
lhand -24.1133 -18.5784
lfingers 7.12502
lthumb 2.3679 11.3882
rfemur -13.9724 4.18761 22.5558
rtibia 62.4155
rfoot -8.5386 1.51164
rtoes -15.6062
lfemur -35.636 3.13704 -22.2081
ltibia 47.4842
lfoot -22.263 1.86684
ltoes -5.29206
159
root 8.93677 15.8334 -6.28501 11.1217 -8.17784 -2.31605
lowerback 0.317652 4.79739 -2.69534
upperback -3.29952 6.29134 -1.87608
thorax -3.65555 3.18724 -0.658232
lowerneck -9.81292 -1.50327 -3.41987
upperneck 11.1263 -2.15673 5.01548
head 5.04389 -0.870559 1.96379
rclavicle -2.93207e-015 -2.38542e-015
rhumerus -47.4603 -1.20083 -85.0868
rradius 33.8892
rwrist 2.67478
rhand -17.3361 -36.1186
rfingers 7.12502
rthumb 8.91099 -65.9104
lclavicle -2.93207e-015 -2.38542e-015
lhumerus -36.2499 8.19936 71.7948
lradius 25.1244
lwrist 3.83059
lhand -24.8389 -18.4911
lfingers 7.12502
lthumb 1.66715 11.4822
rfemur -15.3157 4.02964 22.8839
rtibia 62.7364
rfoot -9.79104 0.691198
rtoes -16.5601
lfemur -34.112 3.25076 -22.1653
ltibia 46.3804
lfoot -22.4274 1.26993
ltoes -3.15946
160
root 8.95224 15.878 -6.11805 10.7102 -8.38987 -2.21636
lowerback 0.383638 4.74092 -2.63471
upperback -3.11326 6.2196 -1.85228
thorax -3.49433 3.14813 -0.658558
lowerneck -9.94668 -1.36918 -3.21106
upperneck 11.359 -1.99981 4.91905
head 5.1286 -0.787742 1.91133
rclavicle -6.77359e-014 -1.27222e-014
rhumerus -47.7101 -1.85147 -84.8852
rradius 33.2912
rwrist 3.05724
rhand -17.1029 -36.1793
rfingers 7.12502
rthumb 9.13606 -65.9614
lclavicle -6.77359e-014 -1.27222e-014
lhumerus -34.3937 7.87957 72.5679
lradius 24.5371
lwrist 4.46504
lhand -25.536 -19.2072
lfingers 7.12502
lthumb 0.993932 10.7702
rfemur -16.5659 4.08994 22.8647
rtibia 63.0434
rfoot -11.1067 0.63328
rtoes -14.2864
lfemur -32.3286 3.44694 -22.4027
ltibia 45.2443
lfoot -22.6955 1.46025
ltoes -3.4686
161
root 8.96753 15.9294 -5.94106 10.1788 -8.68346 -1.90678
lowerback 0.528719 4.73089 -2.86146
upperback -2.99572 6.19791 -1.83217
thorax -3.48082 3.1424 -0.520584
lowerneck -9.99114 -1.2974 -3.12612
upperneck 11.7774 -1.92316 4.86894
head 5.26129 -0.74616 1.88893
rclavicle 2.50469e-014 1.27222e-014
rhumerus -48.4063 -2.09964 -84.7515
rradius 32.9855
rwrist 2.9819
rhand -16.8822 -36.4004
rfingers 7.12502
rthumb 9.34898 -66.1731
lclavicle 2.50469e-014 1.27222e-014
lhumerus -32.8242 7.2909 73.4884
lradius 23.9035
lwrist 5.75229
lhand -25.9021 -19.5429
lfingers 7.12502
lthumb 0.64034 10.4359
rfemur -17.7407 4.45952 22.5627
rtibia 63.3731
rfoot -12.4153 1.09447
rtoes -7.1924
lfemur -30.3794 3.29597 -22.8156
ltibia 44.1318
lfoot -23.1449 1.92111
ltoes -3.626
162
root 8.9792 15.9567 -5.76958 9.61669 -8.97545 -1.37319
lowerback 0.648865 4.68538 -3.33543
upperback -2.91881 6.12077 -1.84853
thorax -3.51705 3.1154 -0.283293
lowerneck -9.80027 -1.21799 -3.20121
upperneck 12.0712 -1.81986 4.87684
head 5.31641 -0.698905 1.91334
rclavicle -2.16178e-014 -1.59028e-015
rhumerus -49.2037 -2.01177 -84.6923
rradius 32.7056
rwrist 2.64871
rhand -16.6028 -36.99
rfingers 7.12502
rthumb 9.61863 -66.7504
lclavicle -2.16178e-014 -1.59028e-015
lhumerus -32.0717 6.85866 74.2227
lradius 24.5633
lwrist 6.52644
lhand -25.8285 -19.1265
lfingers 7.12502
lthumb 0.711428 10.852
rfemur -18.939 4.78258 22.0632
rtibia 63.6948
rfoot -13.9122 1.20343
rtoes -5.30905
lfemur -28.5277 3.25755 -23.4862
ltibia 43.081
lfoot -23.4405 1.8254
ltoes -2.87011
163
root 8.9849 15.9637 -5.61861 9.32966 -8.96319 -0.912208
lowerback 0.612817 4.55446 -3.62214
upperback -2.83201 5.93982 -1.94518
thorax -3.42231 3.02966 -0.209372
lowerneck -9.99567 -1.14707 -3.15298
upperneck 12.5135 -1.74382 4.88483
head 5.48363 -0.653275 1.91541
rclavicle 4.90501e-014 -7.15625e-015
rhumerus -49.7679 -2.489 -84.4528
rradius 32.4352
rwrist 2.94694
rhand -16.1243 -37.3478
rfingers 7.12502
rthumb 10.0802 -67.0863
lclavicle 4.90501e-014 -7.15625e-015
lhumerus -31.2375 6.94011 74.6344
lradius 25.7186
lwrist 6.24587
lhand -25.8335 -19.3955
lfingers 7.12502
lthumb 0.706532 10.5831
rfemur -20.4343 4.67933 21.7428
rtibia 63.9154
rfoot -15.3332 1.30111
rtoes -7.00219
lfemur -27.151 3.44777 -24.0902
ltibia 42.1198
lfoot -23.334 1.6539
ltoes -3.84435
164
root 8.98256 15.9831 -5.48644 9.41221 -8.4321 -0.613314
lowerback 0.659227 4.27659 -3.89344
upperback -2.95671 5.5548 -1.96481
thorax -3.5925 2.84737 -0.0754663
lowerneck -9.92027 -1.02081 -3.0324
upperneck 12.761 -1.61009 4.94168
head 5.54177 -0.577411 1.92527
rclavicle -4.46272e-014 3.65764e-014
rhumerus -50.3505 -3.1158 -84.141
rradius 32.0993
rwrist 3.4222
rhand -15.8024 -36.5858
rfingers 7.12502
rthumb 10.3908 -66.309
lclavicle -4.46272e-014 3.65764e-014
lhumerus -30.0548 7.15299 75.0258
lradius 26.3309
lwrist 5.80415
lhand -25.9326 -19.3842
lfingers 7.12502
lthumb 0.610852 10.5947
rfemur -22.3161 4.04036 21.7796
rtibia 63.934
rfoot -16.5148 1.04944
rtoes -9.86906
lfemur -26.2709 3.22331 -24.4057
ltibia 41.1807
lfoot -23.09 1.26191
ltoes -4.56577
165
root 8.98646 16.0063 -5.34655 9.36527 -7.86473 -0.243369
lowerback 0.803254 3.96555 -4.19181
upperback -3.08715 5.1185 -1.97038
thorax -3.82285 2.64188 0.0840073
lowerneck -9.27414 -0.860111 -2.89017
upperneck 12.6099 -1.41262 4.88224
head 5.37481 -0.488052 1.89787
rclavicle -3.29486e-014 1.43125e-014
rhumerus -50.925 -3.35995 -83.9326
rradius 31.6381
rwrist 3.46282
rhand -15.4907 -35.2224
rfingers 7.12502
rthumb 10.6914 -64.9304
lclavicle -3.29486e-014 1.43125e-014
lhumerus -28.922 7.06598 75.4461
lradius 26.7431
lwrist 5.65058
lhand -25.6603 -18.6793
lfingers 7.12502
lthumb 0.87386 11.2986
rfemur -24.0071 3.44946 21.7182
rtibia 63.7391
rfoot -17.4857 0.537421
rtoes -11.479
lfemur -25.3151 2.91998 -24.7847
ltibia 40.353
lfoot -22.9362 0.332459
ltoes -1.70961
